# xmcd CD database file
#
# Track frame offsets:
#	150
#	9455
#	12835
#	19771
#	31016
#	54022
#	74633
#	88754
#	93214
#	108840
#	118614
#	132056
#	150467
#	158639
#	176421
#	186196
#
# Disc length: 2852 seconds
#
# Revision: 0
# Processed by: cddbd v1.5.2PL0 Copyright (c) Steve Scherf et al.
# Submitted via: CDex 1.51
#
DISCID=b20b2210
DTITLE=Milkymee - To all the ladies in the place, with style and grace
DYEAR=1900
DGENRE=Jazz
TTITLE0=Not so bad!
TTITLE1=Douda
TTITLE2=Screwdriver
TTITLE3=Everyday routine
TTITLE4=Nathalie brown
TTITLE5=In and out of grace
TTITLE6=Koenji monley
TTITLE7=Manpower
TTITLE8=No end in sight 2
TTITLE9=The girl next door
TTITLE10=In a rented room
TTITLE11=White wine and sleeping pills
TTITLE12=Snowballing
TTITLE13=You were always on my mind
TTITLE14=7 Eleven
TTITLE15=Everybody knows
EXTD=
EXTT0=
EXTT1=
EXTT2=
EXTT3=
EXTT4=
EXTT5=
EXTT6=
EXTT7=
EXTT8=
EXTT9=
EXTT10=
EXTT11=
EXTT12=
EXTT13=
EXTT14=
EXTT15=
PLAYORDER=
